PathFileType	3	(X/Y/Z)	C:\Users\dbak576\Desktop\AnkleMomentFeedback\AB28\AB28_05Apr - Copy\AB28_05Apr_static_01.trc
DataRate	CameraRate	NumFrames	NumMarkers	Units	OrigDataRate	OrigDataStartFrame	OrigNumFrames
200.0	200.0	8	42	mm	200.0	1	141	
Frame#	Time	LASI			RASI			LPSI			RPSI			LTH1			LTH2			LTH3			LTH4			LMFC			LLFC			LTB1			LTB2			LTB3			LTB4			LMMAL			LLMAL			LCAL			LToe			LMT1			LMT5			RTH1			RTH2			RTH3			RTH4			RMFC			RLFC			RTB1			RTB2			RTB3			RTB4			RMMAL			RLMAL			RCAL			RToe			RMT1			RMT5			C7			T10			LACR1			RACR1			CLAV			RBack			
		X1	Y1	Z1	X2	Y2	Z2	X3	Y3	Z3	X4	Y4	Z4	X5	Y5	Z5	X6	Y6	Z6	X7	Y7	Z7	X8	Y8	Z8	X9	Y9	Z9	X10	Y10	Z10	X11	Y11	Z11	X12	Y12	Z12	X13	Y13	Z13	X14	Y14	Z14	X15	Y15	Z15	X16	Y16	Z16	X17	Y17	Z17	X18	Y18	Z18	X19	Y19	Z19	X20	Y20	Z20	X21	Y21	Z21	X22	Y22	Z22	X23	Y23	Z23	X24	Y24	Z24	X25	Y25	Z25	X26	Y26	Z26	X27	Y27	Z27	X28	Y28	Z28	X29	Y29	Z29	X30	Y30	Z30	X31	Y31	Z31	X32	Y32	Z32	X33	Y33	Z33	X34	Y34	Z34	X35	Y35	Z35	X36	Y36	Z36	X37	Y37	Z37	X38	Y38	Z38	X39	Y39	Z39	X40	Y40	Z40	X41	Y41	Z41	X42	Y42	Z42	
1	-0.005	341.8454	991.9303	-819.51154	589.47668	1006.3076	-826.44543	424.91949	1033.8085	-646.05029	516.48407	1035.2399	-645.00482	282.33127	799.61292	-791.11377	327.60931	798.25769	-838.0575	303.15948	757.1944	-818.34308	292.08209	708.11279	-800.50201	405.95221	495.83719	-725.10602	290.12067	523.60016	-715.74188	265.29852	398.17361	-662.45367	265.1463	359.01996	-693.1806	276.27393	309.21893	-712.15985	272.85767	400.72003	-723.91565	376.89014	108.599	-717.72882	292.31183	91.127655	-684.77118	348.4068	47.364441	-620.60828	329.13654	51.768127	-896.36609	362.89389	38.122032	-835.69714	251.7854	38.47818	-801.70587	663.5968	849.77606	-788.4007	677.19476	807.05487	-756.66705	676.40411	775.69476	-719.60614	675.18335	759.54865	-779.57776	545.2356	505.13058	-723.76556	665.1405	518.64685	-709.59802	664.71356	261.00961	-722.48657	675.46765	262.94879	-656.05499	675.43683	224.11604	-687.08398	666.18365	172.9507	-707.89655	586.22028	108.63486	-710.2204	667.80432	97.343239	-671.8761	601.99908	50.577923	-616.25488	663.27911	54.16539	-887.64923	619.35895	42.476349	-828.70184	720.94043	44.934273	-779.09216	458.14771	1506.8264	-684.2099	467.59863	1237.519	-614.69098	289.01974	1483.9149	-729.67755	634.4751	1461.8861	-744.45563	461.83881	1428.7546	-824.03949	581.61084	1380.2605	-618.64447
2	0	341.82974	991.91901	-819.49622	589.47205	1006.2899	-826.44922	424.89182	1033.8007	-646.10278	516.51782	1035.2623	-645.00311	282.30719	799.61572	-791.14929	327.60614	798.24451	-838.07611	303.13986	757.19623	-818.38025	292.30618	708.12958	-800.36975	405.95364	495.83972	-725.1106	290.13416	523.56079	-715.71405	265.27686	398.17172	-662.47803	265.13412	359.02533	-693.22992	276.23398	309.20706	-712.19611	272.90698	400.71356	-723.95209	376.88687	108.58175	-717.74292	292.31473	91.14357	-684.78015	348.40985	47.383682	-620.61292	329.11099	51.757294	-896.38727	362.87274	38.11005	-835.67957	251.79898	38.466911	-801.71613	663.60809	849.77747	-788.38965	677.20581	807.01947	-756.66931	676.40411	775.69476	-719.60614	675.18689	759.51373	-779.58093	545.20642	505.11081	-723.77985	665.13623	518.65869	-709.59546	664.69623	260.9794	-722.4895	675.50012	262.94867	-656.05835	675.43799	224.13786	-687.04254	666.18219	172.91154	-707.88043	586.20691	108.59688	-710.17596	667.83057	97.35099	-671.90851	601.99286	50.57021	-616.27618	663.27911	54.16539	-887.64923	619.32764	42.45644	-828.68494	720.96564	44.935013	-779.04126	458.17841	1506.8268	-684.28674	467.60748	1237.4983	-614.69574	289.004	1483.9163	-729.69836	634.48511	1461.8706	-744.45343	461.83734	1428.7498	-824.02795	581.55353	1380.233	-618.66595
3	0.005	341.81543	991.93018	-819.50281	589.46777	1006.2844	-826.44757	424.91946	1033.808	-646.04968	516.51532	1035.2612	-645.04541	282.2825	799.62048	-791.14233	327.60779	798.23853	-838.03192	303.1781	757.19531	-818.4707	292.35156	708.10822	-800.36023	405.93539	495.82938	-725.08826	290.13763	523.57855	-715.72321	265.25513	398.15625	-662.51263	265.10443	359.02145	-693.22559	276.20892	309.22134	-712.1709	272.82925	400.70801	-723.93329	376.85828	108.55817	-717.72662	292.32703	91.109634	-684.78949	348.3815	47.377773	-620.63965	329.12195	51.72142	-896.36542	362.88486	38.07785	-835.67761	251.76724	38.463062	-801.70508	663.60126	849.76392	-788.42346	677.23145	807.02771	-756.70496	676.40283	775.67609	-719.62762	675.19958	759.48633	-779.5484	545.17242	505.1149	-723.84363	665.15485	518.64569	-709.57892	664.70215	260.94315	-722.49323	675.45581	262.91534	-656.09479	675.41595	224.11276	-687.08075	666.17438	172.91432	-707.87531	586.1944	108.6198	-710.19305	667.8064	97.303818	-671.88129	601.97089	50.570263	-616.24841	663.24707	54.145725	-887.63904	619.32465	42.459511	-828.70612	720.95477	44.934303	-779.08215	458.16275	1506.8141	-684.30835	467.60718	1237.4823	-614.7757	289.00882	1483.9342	-729.7262	634.49323	1461.8594	-744.50171	461.83603	1428.7336	-824.065	581.55249	1380.2523	-618.69995
4	0.01	341.82465	991.91071	-819.54633	589.50574	1006.2767	-826.41797	424.93353	1033.774	-646.05878	516.51526	1035.2555	-645.04688	282.28992	799.60339	-791.15643	327.60318	798.22961	-838.06769	303.19574	757.19055	-818.42896	292.3345	708.10956	-800.36932	405.95453	495.84351	-725.10309	290.10883	523.59192	-715.75641	265.2597	398.17523	-662.50018	265.12589	359.02185	-693.20087	276.25931	309.20596	-712.17456	272.82779	400.72949	-723.94006	376.83649	108.59622	-717.72638	292.31677	91.118706	-684.75049	348.40152	47.350128	-620.64612	329.11069	51.742317	-896.39496	362.88278	38.09478	-835.6748	251.76418	38.453926	-801.7149	663.5882	849.76172	-788.43646	677.21985	807.0257	-756.64771	676.41016	775.6319	-719.60785	675.21753	759.50269	-779.57581	545.20898	505.15097	-723.81738	665.13519	518.63043	-709.58118	664.70898	260.97046	-722.49951	675.45026	262.93372	-656.05951	675.42365	224.09344	-687.07788	666.17346	172.91875	-707.86987	586.1944	108.61977	-710.19299	667.81781	97.334801	-671.90247	601.98083	50.545311	-616.24976	663.2511	54.149982	-887.65717	619.27777	42.470375	-828.70282	720.93896	44.920322	-779.086	458.16068	1506.8021	-684.32922	467.60474	1237.5348	-614.78619	289.03809	1483.9281	-729.77582	634.49091	1461.8452	-744.53778	461.8689	1428.7517	-824.18622	581.55249	1380.2523	-618.69995
5	0.015	341.83453	991.95502	-819.56897	589.50952	1006.2806	-826.48621	424.93109	1033.7964	-646.18457	516.51434	1035.2994	-645.07397	282.27649	799.60504	-791.15021	327.62848	798.23962	-838.06842	303.1962	757.19495	-818.43298	292.39749	708.13574	-800.45752	405.91354	495.85849	-725.17249	290.10239	523.59222	-715.76196	265.26111	398.1673	-662.51733	265.12317	359.02228	-693.20337	276.2464	309.20126	-712.198	272.91422	400.71066	-723.99469	376.83878	108.5938	-717.72546	292.32681	91.113853	-684.79346	348.42682	47.356972	-620.61945	329.10565	51.762821	-896.37262	362.85294	38.087761	-835.70416	251.78018	38.448116	-801.71313	663.58624	849.76025	-788.44012	677.20209	807.03027	-756.70483	676.41522	775.66199	-719.69055	675.17719	759.505	-779.59473	545.21283	505.15628	-723.81665	665.12701	518.63721	-709.57623	664.71234	260.97028	-722.50537	675.48596	262.95291	-656.07489	675.42548	224.09016	-687.07806	666.17938	172.91624	-707.88275	586.21344	108.63754	-710.21539	667.81128	97.335876	-671.88458	602.01685	50.560078	-616.21649	663.2395	54.160004	-887.63074	619.33746	42.477833	-828.71405	720.95959	44.941471	-779.09125	458.19632	1506.8153	-684.38861	467.61325	1237.5243	-614.82574	289.03796	1483.9465	-729.8067	634.48883	1461.838	-744.54565	461.86676	1428.7295	-824.13422	581.58386	1380.2614	-618.74542
6	0.02	341.81561	991.96326	-819.60217	589.5047	1006.2741	-826.50946	424.9238	1033.8068	-646.20447	516.51361	1035.3357	-645.08331	282.2749	799.68433	-791.18176	327.63025	798.24426	-838.08893	303.17242	757.23077	-818.47009	292.37793	708.10754	-800.4472	405.91666	495.87347	-725.2735	290.10669	523.6145	-715.78137	265.2489	398.16742	-662.54248	265.12711	359.03824	-693.1734	276.28107	309.2081	-712.18073	272.8761	400.76096	-723.98175	376.82858	108.57202	-717.71082	292.32635	91.129036	-684.76355	348.40546	47.382813	-620.61407	329.12982	51.739845	-896.36029	362.88721	38.128075	-835.66406	251.77414	38.483013	-801.73755	663.55444	849.75446	-788.44067	677.18665	807.02924	-756.75098	676.39386	775.70508	-719.71149	675.17816	759.49286	-779.6037	545.20923	505.15485	-723.82123	665.10614	518.65826	-709.58502	664.71716	260.99265	-722.50751	675.48926	262.9364	-656.06653	675.42816	224.10896	-687.03668	666.18896	172.92438	-707.88855	586.19977	108.62766	-710.20245	667.80493	97.365303	-671.89673	602.04706	50.567284	-616.25055	663.25861	54.168613	-887.66132	619.36011	42.483585	-828.71771	720.92438	44.955368	-779.09039	458.19125	1506.8285	-684.42847	467.68942	1237.2788	-616.09265	289.03009	1483.9468	-729.86993	634.50757	1461.84	-744.54999	461.8718	1428.7711	-824.23706	581.59711	1380.2494	-618.79437
7	0.025	341.82269	991.96973	-819.6123	589.50983	1006.2965	-826.50616	424.91144	1033.8131	-646.14349	516.52032	1035.3199	-645.08374	282.29654	799.64319	-791.25757	327.66736	798.24756	-838.13483	303.20386	757.25311	-818.51086	292.40009	708.16553	-800.51001	405.99396	495.90509	-725.17621	290.13855	523.61731	-715.82397	265.29065	398.21179	-662.54462	265.12842	359.04395	-693.18182	276.30844	309.24692	-712.18549	272.85608	400.74533	-723.99689	376.82605	108.5699	-717.71088	292.32739	91.133904	-684.76752	348.40027	47.384399	-620.61212	329.12253	51.738194	-896.35944	362.86319	38.106518	-835.69373	251.77675	38.483952	-801.73798	663.57458	849.75824	-788.46198	677.22015	807.02118	-756.7453	676.42303	775.68085	-719.7384	675.18115	759.49292	-779.66162	545.20984	505.15598	-723.82153	665.09729	518.66449	-709.58032	664.7287	260.97971	-722.51105	675.44495	262.95743	-656.10138	675.42651	224.10632	-687.06683	666.20221	172.94525	-707.89581	586.22363	108.66278	-710.20935	667.82025	97.363335	-671.93134	602.02295	50.573124	-616.24011	663.26294	54.176884	-887.66437	619.35413	42.504063	-828.73663	720.94073	44.957371	-779.12726	458.22388	1506.8232	-684.46625	467.65549	1237.5209	-614.97345	289.05524	1483.9595	-729.94244	634.52411	1461.8649	-744.61652	461.90652	1428.7699	-824.30847	581.57587	1380.2651	-618.78772
8	0.03	341.85934	991.96527	-819.64508	589.48547	1006.3044	-826.53778	424.8974	1033.8589	-646.14661	516.50995	1035.3475	-645.10815	282.34464	799.63232	-791.22852	327.66348	798.289	-838.16992	303.25235	757.25684	-818.49164	292.33215	708.12695	-800.4823	406.00815	495.93921	-725.11145	290.17664	523.61017	-715.8241	265.30759	398.19916	-662.53906	265.13098	359.04028	-693.21967	276.25729	309.26266	-712.18713	272.95834	400.73239	-724.03571	376.84702	108.60433	-717.70917	292.31665	91.156967	-684.77386	348.4021	47.379688	-620.61554	329.13187	51.734119	-896.35974	362.85904	38.117645	-835.69269	251.76781	38.498718	-801.72589	663.55304	849.76837	-788.49805	677.19464	807.03333	-756.7677	676.4245	775.66022	-719.72083	675.17236	759.52765	-779.64362	545.20355	505.18106	-723.80579	665.09698	518.65253	-709.58252	664.71411	261.00702	-722.49396	675.4848	262.96133	-656.09393	675.45245	224.12018	-687.05774	666.17474	172.94087	-707.9093	586.22882	108.6699	-710.21533	667.78943	97.361488	-671.8985	602.00446	50.584564	-616.2663	663.3175	54.186302	-887.64575	619.32751	42.521988	-828.70215	720.92615	44.961098	-779.11127	458.1973	1506.8195	-684.52423	467.65085	1237.5408	-615.02826	289.03525	1483.9453	-729.98901	634.55066	1461.8491	-744.64227	461.92984	1428.7438	-824.30145	581.60706	1380.2726	-618.82971
